<mxfile modified="2021-11-09T19:46:04.588Z" host="app.diagrams.net" agent="5.0 (Macintosh; Intel Mac OS X 10_15_7) AppleWebKit/605.1.15 (KHTML, like Gecko) Version/14.1.2 Safari/605.1.15" etag="Nrg2XWMRvvR0OD2vH81u" version="15.7.1" type="github">
  <diagram id="Ht1M8jgEwFfnCIfOTk4-" name="Page-1">
    <mxGraphModel dx="788" dy="1365" grid="1" gridSize="10" guides="1" tooltips="1" connect="1" arrows="1" fold="1" page="1" pageScale="1" pageWidth="1169" pageHeight="827" math="0" shadow="0">
      <root>
        <mxCell id="0" />
        <mxCell id="1" parent="0" />
        <mxCell id="UEzPUAAOIrF-is8g5C7q-175" value="AWS Cloud" style="points=[[0,0],[0.25,0],[0.5,0],[0.75,0],[1,0],[1,0.25],[1,0.5],[1,0.75],[1,1],[0.75,1],[0.5,1],[0.25,1],[0,1],[0,0.75],[0,0.5],[0,0.25]];outlineConnect=0;gradientColor=none;html=1;whiteSpace=wrap;fontSize=12;fontStyle=0;shape=mxgraph.aws4.group;grIcon=mxgraph.aws4.group_aws_cloud_alt;strokeColor=#232F3E;fillColor=none;verticalAlign=top;align=left;spacingLeft=30;fontColor=#232F3E;dashed=0;labelBackgroundColor=#ffffff;" parent="1" vertex="1">
          <mxGeometry x="205.75" y="-720" width="748.5" height="440" as="geometry" />
        </mxCell>
        <mxCell id="6DIOcwVf0G7k6cJqoq8S-3" value="Region" style="points=[[0,0],[0.25,0],[0.5,0],[0.75,0],[1,0],[1,0.25],[1,0.5],[1,0.75],[1,1],[0.75,1],[0.5,1],[0.25,1],[0,1],[0,0.75],[0,0.5],[0,0.25]];outlineConnect=0;gradientColor=none;html=1;whiteSpace=wrap;fontSize=12;fontStyle=0;shape=mxgraph.aws4.group;grIcon=mxgraph.aws4.group_region;strokeColor=#147EBA;fillColor=none;verticalAlign=top;align=left;spacingLeft=30;fontColor=#147EBA;dashed=1;" vertex="1" parent="1">
          <mxGeometry x="240" y="-680" width="680" height="360" as="geometry" />
        </mxCell>
        <mxCell id="6DIOcwVf0G7k6cJqoq8S-12" style="edgeStyle=orthogonalEdgeStyle;rounded=0;orthogonalLoop=1;jettySize=auto;html=1;" edge="1" parent="1" source="6DIOcwVf0G7k6cJqoq8S-4" target="6DIOcwVf0G7k6cJqoq8S-6">
          <mxGeometry relative="1" as="geometry">
            <Array as="points">
              <mxPoint x="115" y="-601" />
            </Array>
          </mxGeometry>
        </mxCell>
        <mxCell id="6DIOcwVf0G7k6cJqoq8S-4" value="" style="dashed=0;outlineConnect=0;html=1;align=center;labelPosition=center;verticalLabelPosition=bottom;verticalAlign=top;shape=mxgraph.webicons.twitter;fillColor=#49EAF7;gradientColor=#137BD0" vertex="1" parent="1">
          <mxGeometry x="80" y="-750" width="70" height="70" as="geometry" />
        </mxCell>
        <mxCell id="6DIOcwVf0G7k6cJqoq8S-11" style="edgeStyle=orthogonalEdgeStyle;rounded=0;orthogonalLoop=1;jettySize=auto;html=1;entryX=0;entryY=0.5;entryDx=0;entryDy=0;entryPerimeter=0;" edge="1" parent="1" source="6DIOcwVf0G7k6cJqoq8S-6" target="6DIOcwVf0G7k6cJqoq8S-8">
          <mxGeometry relative="1" as="geometry" />
        </mxCell>
        <mxCell id="6DIOcwVf0G7k6cJqoq8S-20" style="edgeStyle=orthogonalEdgeStyle;rounded=0;orthogonalLoop=1;jettySize=auto;html=1;entryX=0;entryY=0.5;entryDx=0;entryDy=0;entryPerimeter=0;strokeColor=#FF0000;" edge="1" parent="1" source="6DIOcwVf0G7k6cJqoq8S-6" target="6DIOcwVf0G7k6cJqoq8S-10">
          <mxGeometry relative="1" as="geometry">
            <Array as="points">
              <mxPoint x="277" y="-200" />
            </Array>
          </mxGeometry>
        </mxCell>
        <mxCell id="6DIOcwVf0G7k6cJqoq8S-6" value="" style="sketch=0;outlineConnect=0;fontColor=#232F3E;gradientColor=none;fillColor=#3F8624;strokeColor=none;dashed=0;verticalLabelPosition=bottom;verticalAlign=top;align=center;html=1;fontSize=12;fontStyle=0;aspect=fixed;pointerEvents=1;shape=mxgraph.aws4.bucket;" vertex="1" parent="1">
          <mxGeometry x="240" y="-640" width="75" height="78" as="geometry" />
        </mxCell>
        <mxCell id="6DIOcwVf0G7k6cJqoq8S-19" style="edgeStyle=orthogonalEdgeStyle;rounded=0;orthogonalLoop=1;jettySize=auto;html=1;" edge="1" parent="1" source="6DIOcwVf0G7k6cJqoq8S-7" target="6DIOcwVf0G7k6cJqoq8S-18">
          <mxGeometry relative="1" as="geometry" />
        </mxCell>
        <mxCell id="6DIOcwVf0G7k6cJqoq8S-22" style="edgeStyle=orthogonalEdgeStyle;rounded=0;orthogonalLoop=1;jettySize=auto;html=1;strokeColor=#FF0000;" edge="1" parent="1" source="6DIOcwVf0G7k6cJqoq8S-7" target="6DIOcwVf0G7k6cJqoq8S-10">
          <mxGeometry relative="1" as="geometry">
            <Array as="points">
              <mxPoint x="630" y="-200" />
            </Array>
          </mxGeometry>
        </mxCell>
        <mxCell id="6DIOcwVf0G7k6cJqoq8S-7" value="" style="sketch=0;outlineConnect=0;fontColor=#232F3E;gradientColor=none;fillColor=#3F8624;strokeColor=none;dashed=0;verticalLabelPosition=bottom;verticalAlign=top;align=center;html=1;fontSize=12;fontStyle=0;aspect=fixed;pointerEvents=1;shape=mxgraph.aws4.bucket;" vertex="1" parent="1">
          <mxGeometry x="600" y="-640" width="75" height="78" as="geometry" />
        </mxCell>
        <mxCell id="6DIOcwVf0G7k6cJqoq8S-13" style="edgeStyle=orthogonalEdgeStyle;rounded=0;orthogonalLoop=1;jettySize=auto;html=1;entryX=0;entryY=0.75;entryDx=0;entryDy=0;entryPerimeter=0;" edge="1" parent="1" source="6DIOcwVf0G7k6cJqoq8S-8" target="6DIOcwVf0G7k6cJqoq8S-9">
          <mxGeometry relative="1" as="geometry" />
        </mxCell>
        <mxCell id="6DIOcwVf0G7k6cJqoq8S-17" style="edgeStyle=orthogonalEdgeStyle;rounded=0;orthogonalLoop=1;jettySize=auto;html=1;" edge="1" parent="1" source="6DIOcwVf0G7k6cJqoq8S-8" target="6DIOcwVf0G7k6cJqoq8S-7">
          <mxGeometry relative="1" as="geometry" />
        </mxCell>
        <mxCell id="6DIOcwVf0G7k6cJqoq8S-21" style="edgeStyle=orthogonalEdgeStyle;rounded=0;orthogonalLoop=1;jettySize=auto;html=1;strokeColor=#FF0000;" edge="1" parent="1" source="6DIOcwVf0G7k6cJqoq8S-8">
          <mxGeometry relative="1" as="geometry">
            <mxPoint x="470" y="-200" as="targetPoint" />
            <Array as="points">
              <mxPoint x="400" y="-381" />
              <mxPoint x="470" y="-381" />
            </Array>
          </mxGeometry>
        </mxCell>
        <mxCell id="6DIOcwVf0G7k6cJqoq8S-8" value="" style="sketch=0;points=[[0,0,0],[0.25,0,0],[0.5,0,0],[0.75,0,0],[1,0,0],[0,1,0],[0.25,1,0],[0.5,1,0],[0.75,1,0],[1,1,0],[0,0.25,0],[0,0.5,0],[0,0.75,0],[1,0.25,0],[1,0.5,0],[1,0.75,0]];outlineConnect=0;fontColor=#232F3E;gradientColor=#F78E04;gradientDirection=north;fillColor=#D05C17;strokeColor=#ffffff;dashed=0;verticalLabelPosition=bottom;verticalAlign=top;align=center;html=1;fontSize=12;fontStyle=0;aspect=fixed;shape=mxgraph.aws4.resourceIcon;resIcon=mxgraph.aws4.ec2;" vertex="1" parent="1">
          <mxGeometry x="400" y="-640" width="78" height="78" as="geometry" />
        </mxCell>
        <mxCell id="6DIOcwVf0G7k6cJqoq8S-16" style="edgeStyle=orthogonalEdgeStyle;rounded=0;orthogonalLoop=1;jettySize=auto;html=1;entryX=1;entryY=0.5;entryDx=0;entryDy=0;entryPerimeter=0;" edge="1" parent="1" source="6DIOcwVf0G7k6cJqoq8S-9" target="6DIOcwVf0G7k6cJqoq8S-8">
          <mxGeometry relative="1" as="geometry" />
        </mxCell>
        <mxCell id="6DIOcwVf0G7k6cJqoq8S-9" value="" style="sketch=0;points=[[0,0,0],[0.25,0,0],[0.5,0,0],[0.75,0,0],[1,0,0],[0,1,0],[0.25,1,0],[0.5,1,0],[0.75,1,0],[1,1,0],[0,0.25,0],[0,0.5,0],[0,0.75,0],[1,0.25,0],[1,0.5,0],[1,0.75,0]];outlineConnect=0;fontColor=#232F3E;gradientColor=#4AB29A;gradientDirection=north;fillColor=#116D5B;strokeColor=#ffffff;dashed=0;verticalLabelPosition=bottom;verticalAlign=top;align=center;html=1;fontSize=12;fontStyle=0;aspect=fixed;shape=mxgraph.aws4.resourceIcon;resIcon=mxgraph.aws4.translate;" vertex="1" parent="1">
          <mxGeometry x="440" y="-520" width="78" height="78" as="geometry" />
        </mxCell>
        <mxCell id="6DIOcwVf0G7k6cJqoq8S-10" value="" style="verticalLabelPosition=bottom;html=1;verticalAlign=top;align=center;strokeColor=none;fillColor=#00BEF2;shape=mxgraph.azure.github_code;pointerEvents=1;" vertex="1" parent="1">
          <mxGeometry x="478" y="-240" width="85" height="80" as="geometry" />
        </mxCell>
        <mxCell id="6DIOcwVf0G7k6cJqoq8S-23" style="edgeStyle=orthogonalEdgeStyle;rounded=0;orthogonalLoop=1;jettySize=auto;html=1;entryX=1.047;entryY=0.601;entryDx=0;entryDy=0;entryPerimeter=0;strokeColor=#FF0000;" edge="1" parent="1" source="6DIOcwVf0G7k6cJqoq8S-18" target="6DIOcwVf0G7k6cJqoq8S-10">
          <mxGeometry relative="1" as="geometry">
            <Array as="points">
              <mxPoint x="810" y="-200" />
              <mxPoint x="567" y="-200" />
            </Array>
          </mxGeometry>
        </mxCell>
        <mxCell id="6DIOcwVf0G7k6cJqoq8S-26" style="edgeStyle=orthogonalEdgeStyle;rounded=0;orthogonalLoop=1;jettySize=auto;html=1;" edge="1" parent="1" source="6DIOcwVf0G7k6cJqoq8S-18">
          <mxGeometry relative="1" as="geometry">
            <mxPoint x="870" y="-460" as="targetPoint" />
          </mxGeometry>
        </mxCell>
        <mxCell id="6DIOcwVf0G7k6cJqoq8S-18" value="" style="sketch=0;points=[[0,0,0],[0.25,0,0],[0.5,0,0],[0.75,0,0],[1,0,0],[0,1,0],[0.25,1,0],[0.5,1,0],[0.75,1,0],[1,1,0],[0,0.25,0],[0,0.5,0],[0,0.75,0],[1,0.25,0],[1,0.5,0],[1,0.75,0]];outlineConnect=0;fontColor=#232F3E;gradientColor=#F78E04;gradientDirection=north;fillColor=#D05C17;strokeColor=#ffffff;dashed=0;verticalLabelPosition=bottom;verticalAlign=top;align=center;html=1;fontSize=12;fontStyle=0;aspect=fixed;shape=mxgraph.aws4.resourceIcon;resIcon=mxgraph.aws4.ec2;" vertex="1" parent="1">
          <mxGeometry x="780" y="-640" width="78" height="78" as="geometry" />
        </mxCell>
        <mxCell id="6DIOcwVf0G7k6cJqoq8S-28" style="edgeStyle=orthogonalEdgeStyle;rounded=0;orthogonalLoop=1;jettySize=auto;html=1;entryX=0.839;entryY=0.587;entryDx=0;entryDy=0;entryPerimeter=0;strokeColor=#FF0000;" edge="1" parent="1" source="6DIOcwVf0G7k6cJqoq8S-24" target="6DIOcwVf0G7k6cJqoq8S-10">
          <mxGeometry relative="1" as="geometry">
            <Array as="points">
              <mxPoint x="867" y="-200" />
              <mxPoint x="560" y="-200" />
              <mxPoint x="560" y="-193" />
            </Array>
          </mxGeometry>
        </mxCell>
        <mxCell id="6DIOcwVf0G7k6cJqoq8S-24" value="" style="sketch=0;outlineConnect=0;fontColor=#232F3E;gradientColor=none;fillColor=#3F8624;strokeColor=none;dashed=0;verticalLabelPosition=bottom;verticalAlign=top;align=center;html=1;fontSize=12;fontStyle=0;aspect=fixed;pointerEvents=1;shape=mxgraph.aws4.bucket;" vertex="1" parent="1">
          <mxGeometry x="830" y="-460" width="75" height="78" as="geometry" />
        </mxCell>
        <mxCell id="6DIOcwVf0G7k6cJqoq8S-30" value="Text" style="text;html=1;align=center;verticalAlign=middle;resizable=0;points=[];autosize=1;strokeColor=none;fillColor=none;" vertex="1" parent="1">
          <mxGeometry x="740" y="-780" width="40" height="20" as="geometry" />
        </mxCell>
      </root>
    </mxGraphModel>
  </diagram>
</mxfile>
